{
	"asset":{
		"generator":"Khronos glTF Blender I/O v4.0.44",
		"version":"2.0"
	},
	"scene":0,
	"scenes":[
		{
			"name":"Scene",
			"nodes":[
				0
			]
		}
	],
	"nodes":[
		{
			"mesh":0,
			"name":"OceanFloor",
			"translation":[
				-256,
				0,
				256
			]
		}
	],
	"materials":[
		{
			"doubleSided":true,
			"name":"OceanFloor",
			"pbrMetallicRoughness":{
				"baseColorFactor":[
					0.30000001192092896,
					0.25,
					0.20000000298023224,
					1
				],
				"metallicFactor":0,
				"roughnessFactor":0.800000011920929
			}
		}
	],
	"meshes":[
		{
			"name":"OceanFloor",
			"primitives":[
				{
					"attributes":{
						"POSITION":0,
						"NORMAL":1
					},
					"indices":2,
					"material":0
				}
			]
		}
	],
	"accessors":[
		{
			"bufferView":0,
			"componentType":5126,
			"count":262144,
			"max":[
				511,
				2.009732961654663,
				0
			],
			"min":[
				0,
				0.009375949390232563,
				-511
			],
			"type":"VEC3"
		},
		{
			"bufferView":1,
			"componentType":5126,
			"count":262144,
			"type":"VEC3"
		},
		{
			"bufferView":2,
			"componentType":5125,
			"count":1566726,
			"type":"SCALAR"
		}
	],
	"bufferViews":[
		{
			"buffer":0,
			"byteLength":3145728,
			"byteOffset":0,
			"target":34962
		},
		{
			"buffer":0,
			"byteLength":3145728,
			"byteOffset":3145728,
			"target":34962
		},
		{
			"buffer":0,
			"byteLength":6266904,
			"byteOffset":6291456,
			"target":34963
		}
	],
	"buffers":[
		{
			"byteLength":12558360,
			"uri":"godot_ocean_terrain.bin"
		}
	]
}
